# xmcd
# Track frame offsets:
# 150
# 9740
# 20549
# 28026
# 42869
# 53014
# 65439
# 75112
# 87646
# 98503
# 110804
# 116853
# 131855
# 140603
# 148252
# 161090
# 171497
# 180997
# 189755
# 200733
#
# Disc length: 2871 seconds
# Revision: 0
# Processed by: cddbd v1.5.2PL0 Copyright (c) Steve Scherf et al.
# Submitted via: VisiTrax 2.10.1.251 - For more info visit www.synapsa.com
#
DISCID=1c0b3514
DTITLE=Riders In The Sky - Live From he Golden Age of Riders Radio Theater
DYEAR=2006
DGENRE=Cowboy
TTITLE0=Back In The Saddle Again
TTITLE1=Wah-Hoo
TTITLE2=Along The Navajo Trail
TTITLE3=Bye Bye Blackbird
TTITLE4=A Cowboy Has To Sing
TTITLE5=The Wayward Wind
TTITLE6=Singin' A Song Of The Sage
TTITLE7=I Still Do
TTITLE8=That's How The Yodel Was Born
TTITLE9=Empty Saddles In The Old Corral
TTITLE10=Lonely Yukon Stars
TTITLE11=Riding The Old Front Range
TTITLE12=Beyond The Reef
TTITLE13=Wild Fiddler's Rag
TTITLE14=Little Joe, The Wrangler
TTITLE15=Chant Of The Plains
TTITLE16=Chime Bells
TTITLE17=The Last Waltz
TTITLE18=Song Of The Bandit
TTITLE19=This Ain't The Same Old Range
EXTD=
EXTT0=
EXTT1=
EXTT2=
EXTT3=
EXTT4=
EXTT5=
EXTT6=
EXTT7=
EXTT8=
EXTT9=
EXTT10=
EXTT11=
EXTT12=
EXTT13=
EXTT14=
EXTT15=
EXTT16=
EXTT17=
EXTT18=
EXTT19=
PLAYORDER=
